# Alias OBJ Model File
# Exported from SketchUp, (c) 2000-2012 Trimble Navigation Limited
# File units = millimeters

mtllib sketchap.mtl

g Mesh1 Model

usemtl FrontColor
v 36.5395 0 -24.9342
vt -1.43856 0.981661
vn 0 -1 -0
v 36.5395 0 -61.2676
vt -1.43856 2.41211
v 73.1603 0 -61.2676
vt -2.88033 2.41211
v 73.1603 0 -24.9342
vt -2.88033 0.981661
f 1/1/1 2/2/1 3/3/1 4/4/1 

vt -2.41211 0
vn -1 0 -1.87998e-016
vt -0.981661 0
v 36.5395 3.83133 -24.9342
vt -0.981661 0.15084
v 36.5395 3.83133 -38.4547
vt -1.51397 0.15084
v 36.5395 15 -38.4547
vt -1.51397 0.590551
v 36.5395 15 -48.2676
vt -1.9003 0.590551
v 36.5395 30 -48.2676
vt -1.9003 1.1811
v 36.5395 30 -61.2676
vt -2.41211 1.1811
f 2/5/2 1/6/2 5/7/2 6/8/2 7/9/2 8/10/2 9/11/2 10/12/2 

vt 1.43856 0
vn 0 0 1
vt 2.88033 0
v 73.1603 30 -24.9342
vt 2.88033 1.1811
v 60.1603 30 -24.9342
vt 2.36851 1.1811
v 60.1603 15 -24.9342
vt 2.36851 0.590551
v 50.7559 15 -24.9342
vt 1.99826 0.590551
v 50.7559 3.83133 -24.9342
vt 1.99826 0.15084
vt 1.43856 0.15084
f 1/13/3 4/14/3 11/15/3 12/16/3 13/17/3 14/18/3 15/19/3 5/20/3 

vt 0.981661 0
vn 1 0 -0
vt 2.41211 0
v 73.1603 30 -61.2676
vt 2.41211 1.1811
vt 0.981661 1.1811
f 4/21/4 3/22/4 16/23/4 11/24/4 

vt -2.88033 0
vn 0 0 -1
vt -1.43856 0
vt -1.43856 1.1811
vt -2.88033 1.1811
f 3/25/5 2/26/5 10/27/5 16/28/5 

vt 1.43856 2.41211
vn 0 1 -0
vt 1.43856 1.9003
v 60.1603 30 -48.2676
vt 2.36851 1.9003
vt 2.36851 0.981661
vt 2.88033 0.981661
vt 2.88033 2.41211
f 10/29/6 9/30/6 17/31/6 12/32/6 11/33/6 16/34/6 

vt 1.43856 1.1811
vt 1.43856 0.590551
v 60.1603 15 -48.2676
f 17/16/3 9/35/3 8/36/3 18/17/3 

vt 1.43856 1.51397
v 50.7559 15 -38.4547
vt 1.99826 1.51397
vt 1.99826 0.981661
f 8/30/6 7/37/6 19/38/6 14/39/6 13/32/6 18/31/6 

v 50.7559 3.83133 -38.4547
f 19/18/3 7/36/3 6/20/3 20/19/3 

vt 1.43856 0.981661
f 5/40/6 15/39/6 20/38/6 6/37/6 

vt -0.981661 0.590551
vn -1 0 -0
f 14/41/7 19/9/7 20/8/7 15/7/7 

vt -0.981661 1.1811
f 12/42/7 17/11/7 18/10/7 13/41/7 

